<?xml version="1.0" standalone="no"?>
<!DOCTYPE svg PUBLIC "-//W3C//DTD SVG 20010904//EN"
 "http://www.w3.org/TR/2001/REC-SVG-20010904/DTD/svg10.dtd">
<svg version="1.0" xmlns="http://www.w3.org/2000/svg"
 width="500.000000pt" height="500.000000pt" viewBox="0 0 500.000000 500.000000"
 preserveAspectRatio="xMidYMid meet">

<g transform="translate(0.000000,500.000000) scale(0.100000,-0.100000)"
fill="#000000" stroke="none">
<path d="M2315 4779 c-236 -15 -546 -93 -751 -190 -22 -10 -43 -19 -47 -19
-28 0 -334 -191 -419 -261 -26 -22 -50 -39 -54 -39 -11 0 -314 -306 -314 -317
0 -6 -7 -16 -16 -24 -17 -14 -134 -175 -134 -185 0 -3 -11 -20 -24 -37 -13
-18 -42 -67 -65 -109 -41 -75 -42 -77 -23 -95 10 -10 26 -22 34 -28 13 -8 94
-69 223 -169 98 -76 124 -96 171 -133 30 -24 58 -43 63 -43 6 0 14 -6 18 -13
4 -7 51 -45 104 -85 54 -40 102 -79 109 -87 18 -21 30 -19 30 6 0 23 111 253
135 279 8 9 15 20 15 23 0 15 100 137 170 207 66 67 160 144 212 175 268 159
475 220 748 220 141 0 265 -18 389 -57 87 -27 185 -66 221 -89 8 -5 34 -18 57
-30 23 -11 47 -27 54 -35 6 -8 17 -14 23 -14 7 0 23 -11 36 -25 13 -14 29 -25
36 -25 7 0 14 -6 17 -12 3 -8 147 129 336 317 l331 330 -22 23 c-48 47 -156
128 -237 177 -9 6 -31 20 -48 33 -17 12 -36 22 -41 22 -6 0 -17 6 -24 14 -18
18 -262 136 -282 136 -8 0 -17 4 -20 8 -9 15 -257 89 -386 116 -109 22 -390
49 -469 45 -14 -1 -84 -6 -156 -10z"/>
<path d="M2546 2908 c2 -4 -6 -8 -18 -10 l-23 -3 2 -418 c1 -230 5 -422 8
-426 3 -5 -1 -12 -7 -14 -7 -3 265 -6 605 -6 l617 -1 0 -25 c0 -14 -11 -53
-25 -87 -14 -34 -25 -67 -25 -73 0 -17 -80 -169 -91 -173 -5 -2 -9 -9 -9 -16
0 -36 -240 -285 -276 -286 -6 0 -17 -6 -23 -14 -9 -11 -5 -17 16 -31 16 -10
32 -24 36 -32 4 -7 14 -13 22 -13 8 0 18 -6 22 -13 4 -7 41 -37 81 -66 39 -30
72 -58 72 -62 0 -5 6 -9 13 -9 8 0 24 -11 37 -25 13 -14 27 -25 32 -25 4 0 16
-8 27 -18 10 -9 39 -33 65 -52 26 -19 57 -44 69 -55 12 -11 29 -24 38 -30 33
-20 168 -125 174 -136 4 -6 31 15 66 53 33 35 72 77 88 93 27 29 100 124 131
170 8 13 34 51 58 85 23 34 42 67 42 72 0 5 11 24 25 42 14 18 25 38 25 45 0
6 11 29 25 51 14 22 25 45 25 52 0 7 11 35 24 63 13 27 29 66 36 85 6 19 18
53 25 75 30 85 65 226 89 360 44 247 44 629 0 813 l-18 73 -1042 -3 c-573 -2
-1040 -6 -1038 -10z"/>
</g>
</svg>
